<svg id="Capa_1" enable-background="new 0 0 512.008 512.008" height="512" viewBox="0 0 512.008 512.008" width="512" xmlns="http://www.w3.org/2000/svg"><path d="m508.106 227.392-6.111-10.22c-3.077-5.146-8.255-8.52-14.205-9.257-5.947-.738-11.793 1.272-16.032 5.512l-12.253 12.253c-1.288-3.609-3.371-6.917-6.161-9.707-4.598-4.598-10.603-7.274-17.045-7.635 8.717-21.014 7.261-41.281 6.068-57.854-1.576-21.883-2.82-39.168 15.179-60.332 9.366-11.013 8.027-27.594-2.984-36.961-5.336-4.538-12.123-6.726-19.097-6.165-6.982.563-13.327 3.813-17.865 9.151-31.899 37.506-29.379 72.512-27.538 98.074.06.827.118 1.647.176 2.462-2.667-.897-5.488-1.37-8.384-1.37-.091 0-.182.006-.273.007.067-6.801-2.484-13.623-7.662-18.801-2.79-2.79-6.098-4.873-9.706-6.161l12.253-12.253c4.239-4.24 6.247-10.083 5.511-16.034-.737-5.95-4.111-11.127-9.257-14.204l-10.221-6.111c-10.82-6.47-24.603-4.762-33.518 4.152l-81.53 81.53v-23.068c0-12.607-8.539-23.561-20.765-26.637l-11.549-2.905c-5.812-1.462-11.859-.188-16.589 3.498-4.729 3.686-7.44 9.239-7.44 15.235v17.349c-3.404-1.618-7.208-2.528-11.221-2.528-7.327 0-13.958 3.024-18.721 7.886-4.762-4.862-11.393-7.886-18.721-7.886-7.327 0-13.958 3.024-18.72 7.886-4.762-4.861-11.394-7.886-18.72-7.886-7.327 0-13.958 3.024-18.721 7.886-4.763-4.862-11.394-7.886-18.721-7.886-4.013 0-7.817.909-11.221 2.528v-17.35c0-5.996-2.712-11.548-7.44-15.234-4.729-3.687-10.772-4.96-16.589-3.499l-11.548 2.906c-12.226 3.076-20.765 14.029-20.765 26.637v15.467c0 4.142 3.357 7.5 7.5 7.5s7.5-3.358 7.5-7.5v-15.467c0-5.723 3.876-10.694 9.426-12.09l11.548-2.906c1.777-.449 3.086.298 3.706.782.621.484 1.663 1.57 1.663 3.404v298.954c0 1.834-1.042 2.92-1.663 3.404s-1.933 1.227-3.706.782l-11.548-2.906c-5.55-1.396-9.426-6.368-9.426-12.09v-226.281c0-4.142-3.357-7.5-7.5-7.5s-7.5 3.358-7.5 7.5v226.281c0 12.607 8.539 23.561 20.766 26.637l11.548 2.906c1.579.397 3.175.592 4.757.592 4.243 0 8.388-1.406 11.832-4.091 4.729-3.686 7.44-9.239 7.44-15.234v-17.348c3.404 1.618 7.208 2.528 11.221 2.528 7.327 0 13.958-3.025 18.721-7.887 4.762 4.862 11.393 7.887 18.721 7.887 7.327 0 13.958-3.025 18.72-7.886 4.762 4.862 11.393 7.886 18.72 7.886s13.958-3.025 18.721-7.887c4.762 4.862 11.394 7.887 18.721 7.887 4.013 0 7.817-.909 11.221-2.528v17.348c0 5.996 2.712 11.548 7.44 15.234 3.444 2.685 7.588 4.091 11.832 4.091 1.582 0 3.178-.195 4.757-.592l11.549-2.906c12.226-3.077 20.765-14.03 20.765-26.637v-35.218c2.411.719 4.94 1.094 7.527 1.094.087 0 .173-.006.26-.006-.001.087-.006.173-.006.26 0 7.004 2.728 13.589 7.68 18.541 2.79 2.79 6.098 4.874 9.707 6.161l-12.253 12.253c-4.239 4.24-6.248 10.083-5.511 16.034.736 5.95 4.11 11.127 9.257 14.204l10.22 6.111c4.387 2.623 9.26 3.902 14.098 3.902 7.098-.001 14.121-2.753 19.422-8.054l12.964-12.964c2.929-2.929 2.929-7.678 0-10.607-2.93-2.929-7.678-2.929-10.608 0l-12.964 12.964c-4.046 4.046-10.302 4.821-15.214 1.884l-10.221-6.111c-1.574-.941-1.972-2.393-2.068-3.174-.097-.782-.065-2.286 1.232-3.583l211.393-211.393c1.296-1.295 2.799-1.328 3.582-1.231.781.097 2.232.494 3.175 2.068l6.11 10.22c2.937 4.912 2.162 11.168-1.885 15.215l-157.073 157.071c-2.929 2.929-2.929 7.678 0 10.606 2.93 2.929 7.678 2.929 10.607 0l157.071-157.071c8.915-8.914 10.622-22.698 4.152-33.518zm-429.322 164.111c0 6.187-5.033 11.221-11.221 11.221s-11.221-5.034-11.221-11.221v-216.872c0-6.187 5.033-11.22 11.221-11.22s11.221 5.033 11.221 11.22zm37.442 0c0 6.187-5.033 11.221-11.221 11.221s-11.221-5.034-11.221-11.221v-216.872c0-6.187 5.033-11.22 11.221-11.22s11.221 5.033 11.221 11.22zm312.8-325.609c1.942-2.285 4.657-3.676 7.643-3.916 2.991-.242 5.89.697 8.173 2.639 4.713 4.008 5.285 11.104 1.277 15.817-21.976 25.839-20.392 47.837-18.714 71.127.844 11.711 1.76 24.488-.891 37.601-5.137-4.951-11.807-7.394-18.46-7.325.038-3.671-.691-7.345-2.18-10.766.023-5.666-.4-11.623-.852-17.899-1.837-25.521-3.919-54.446 24.004-87.278zm-222.919 67.696c0-1.834 1.042-2.92 1.663-3.404.62-.484 1.929-1.229 3.706-.781l11.549 2.905c5.549 1.396 9.425 6.368 9.425 12.09v38.067l-26.343 26.343zm-37.441 41.041c0-6.187 5.033-11.22 11.221-11.22s11.221 5.033 11.221 11.22v49.179l-22.441 22.441v-71.62zm-37.44 0c0-6.187 5.033-11.22 11.22-11.22 6.188 0 11.221 5.033 11.221 11.22v86.62l-20.79 20.79c-.582.582-1.13 1.187-1.65 1.809v-109.219zm22.44 216.872c0 6.187-5.033 11.221-11.221 11.221-6.186 0-11.22-5.034-11.22-11.221v-71.76l3.61 6.038c3.076 5.145 8.254 8.52 14.203 9.257.81.1 1.616.149 2.417.149.743 0 1.479-.055 2.21-.139v56.455zm.801-72.584c-1.298 1.298-2.801 1.329-3.583 1.232-.781-.097-2.232-.494-3.175-2.069l-6.11-10.22c-2.938-4.911-2.162-11.167 1.885-15.214l196.104-196.105c2.406-2.406 5.593-3.656 8.814-3.656 2.196 0 4.408.581 6.399 1.771l10.22 6.111c1.574.941 1.972 2.392 2.068 3.174.097.781.065 2.286-1.231 3.583l-182.362 182.364c-.003.003-.006.005-.01.009-.006.006-.011.012-.017.018zm36.64 72.584c0 6.187-5.033 11.221-11.221 11.221s-11.221-5.034-11.221-11.221v-65.569l8.674-8.674c1.262 3.551 3.309 6.884 6.147 9.721 2.242 2.242 4.821 4.023 7.62 5.306v59.216zm2.987-75.13c-4.373-4.373-4.375-11.488-.005-15.863l153.351-153.351.005-.005c2.119-2.119 4.936-3.287 7.934-3.287s5.814 1.168 7.934 3.287c4.375 4.374 4.375 11.493 0 15.868l-153.352 153.351c-2.119 2.119-4.937 3.287-7.934 3.287s-5.814-1.168-7.933-3.287zm38.356 105.361c0 5.722-3.876 10.694-9.425 12.09l-11.549 2.906c-1.777.447-3.086-.297-3.706-.782-.621-.484-1.663-1.57-1.663-3.404v-83.999c1.064 1.748 2.345 3.401 3.854 4.91 5.111 5.111 11.826 7.667 18.54 7.667.087 0 .174-.005.261-.006-.001.091-.007.181-.007.273 0 4.808 1.286 9.418 3.693 13.438v46.907zm3.988-78.886c-4.376 4.376-11.495 4.376-15.869.001-4.375-4.375-4.375-11.494 0-15.869l153.351-153.351c2.119-2.12 4.937-3.287 7.934-3.287s5.815 1.167 7.934 3.287c4.375 4.375 4.375 11.493 0 15.868zm18.539 29.761c-2.997 0-5.814-1.168-7.934-3.287-.31-.31-.593-.638-.861-.976-.135-.201-.279-.396-.433-.583-1.291-1.86-1.992-4.062-1.992-6.375 0-2.995 1.166-5.812 3.283-7.93.001-.001.003-.002.004-.004l153.351-153.351c4.373-4.375 11.493-4.375 15.868 0 2.119 2.12 3.286 4.938 3.286 7.934 0 .561-.054 1.112-.134 1.657-.027.145-.046.29-.064.435-.413 2.2-1.471 4.225-3.089 5.842l-153.35 153.35c-2.12 2.121-4.937 3.288-7.935 3.288zm187.76-130.163c-.001.002-.003.003-.004.004l-153.346 153.347s-.001 0-.001.001c-2.119 2.119-4.937 3.287-7.934 3.287s-5.814-1.168-7.934-3.287c-2.119-2.119-3.286-4.937-3.286-7.934 0-2.995 1.166-5.811 3.283-7.93l.004-.004 153.35-153.35c2.12-2.12 4.938-3.287 7.935-3.287s5.814 1.168 7.935 3.287c2.119 2.119 3.286 4.936 3.286 7.934s-1.169 5.813-3.288 7.932z"/></svg>