<svg id="icons" enable-background="new 0 0 64 64" height="512" viewBox="0 0 64 64" width="512" xmlns="http://www.w3.org/2000/svg"><path d="m63 25h-3.891c-.652-2.536-1.656-4.958-2.991-7.218l2.752-2.753c.188-.188.293-.441.293-.707s-.105-.52-.293-.707l-8.485-8.485c-.375-.375-1.039-.375-1.414 0l-2.753 2.752c-2.26-1.335-4.682-2.339-7.218-2.991v-3.891c0-.553-.447-1-1-1h-12c-.553 0-1 .447-1 1v3.891c-2.536.652-4.958 1.656-7.218 2.991l-2.753-2.752c-.375-.375-1.039-.375-1.414 0l-8.485 8.485c-.188.188-.293.441-.293.707s.105.52.293.707l2.752 2.753c-1.335 2.26-2.339 4.682-2.991 7.218h-3.891c-.553 0-1 .447-1 1v12c0 .553.447 1 1 1h3.891c.652 2.536 1.656 4.958 2.991 7.218l-2.752 2.753c-.188.188-.293.441-.293.707s.105.52.293.707l8.485 8.485c.375.375 1.039.375 1.414 0l2.753-2.752c2.26 1.335 4.682 2.339 7.218 2.991v3.891c0 .553.447 1 1 1h12c.553 0 1-.447 1-1v-3.891c2.536-.652 4.958-1.656 7.218-2.991l2.753 2.752c.375.375 1.039.375 1.414 0l8.485-8.485c.188-.188.293-.441.293-.707s-.105-.52-.293-.707l-2.752-2.753c1.335-2.26 2.339-4.682 2.991-7.218h3.891c.553 0 1-.447 1-1v-12c0-.553-.447-1-1-1zm-1 12h-3.678c-.467 0-.872.323-.976.778-.648 2.858-1.771 5.569-3.339 8.058-.248.396-.19.91.14 1.24l2.602 2.602-7.071 7.071-2.602-2.602c-.331-.332-.846-.387-1.24-.14-2.488 1.567-5.199 2.69-8.058 3.339-.455.104-.778.509-.778.976v3.678h-10v-3.678c0-.467-.323-.872-.778-.976-2.858-.648-5.569-1.771-8.058-3.339-.395-.247-.91-.192-1.24.14l-2.602 2.602-7.071-7.071 2.602-2.602c.33-.33.388-.845.14-1.24-1.567-2.488-2.69-5.199-3.339-8.058-.104-.455-.509-.778-.976-.778h-3.678v-10h3.678c.467 0 .872-.323.976-.778.648-2.858 1.771-5.569 3.339-8.058.248-.396.19-.91-.14-1.24l-2.602-2.602 7.071-7.071 2.602 2.602c.33.331.846.387 1.24.14 2.488-1.567 5.199-2.69 8.058-3.339.455-.104.778-.509.778-.976v-3.678h10v3.678c0 .467.323.872.778.976 2.858.648 5.569 1.771 8.058 3.339.395.247.909.191 1.24-.14l2.602-2.602 7.071 7.071-2.602 2.602c-.33.33-.388.845-.14 1.24 1.567 2.488 2.69 5.199 3.339 8.058.104.455.509.778.976.778h3.678z"/><path d="m32 53c-11.579 0-21-9.421-21-21 0-.553-.447-1-1-1s-1 .447-1 1c0 12.683 10.317 23 23 23 .553 0 1-.447 1-1s-.447-1-1-1z"/><path d="m46.543 14.188c-.6-1.167-1.746-1.992-3.106-2.144-3.467-1.989-7.418-3.044-11.437-3.044-.553 0-1 .447-1 1s.447 1 1 1c2.177 0 4.329.347 6.383 1.001h-17.38c-2.206 0-4 1.794-4 4v6.062c-1.96 2.952-3.003 6.377-3.003 9.937 0 3.833 1.214 7.382 3.264 10.305.015.017.023.036.039.052.851 1.203 1.844 2.296 2.956 3.257.037.042.079.076.123.111 2.972 2.52 6.768 4.08 10.922 4.24.229.029.459.049.695.049.235 0 .467-.02.694-.049 4.156-.159 7.955-1.721 10.928-4.242.042-.034.082-.066.117-.106 1.114-.962 2.107-2.056 2.959-3.26.016-.016.024-.035.039-.052 2.05-2.923 3.264-6.472 3.264-10.305 0-3.56-1.043-6.984-3.003-9.936v-4.76c3.84 3.91 6.003 9.14 6.003 14.696 0 .553.447 1 1 1s1-.447 1-1c0-6.941-3.082-13.419-8.457-17.812zm-29.54 12.251v11.083c-.638-1.724-1.003-3.579-1.003-5.522 0-1.92.348-3.795 1.003-5.561zm14.997 21.561c-.092 0-.182-.013-.273-.014-1.801-.142-3.228-1.636-3.228-3.473 0-1.93 1.57-3.5 3.5-3.5s3.5 1.57 3.5 3.5c0 1.837-1.428 3.332-3.229 3.473-.091.002-.179.014-.27.014zm1.431-8.791c.162-.116.351-.198.564-.199.002 0 .003.001.005.001h3.492c.007 0 .013-.004.02-.004 1.369-.011 2.48-1.126 2.48-2.498 0-1.379-1.121-2.5-2.5-2.5h-10.986c-.275 0-.5-.225-.5-.5s.225-.5.5-.5h3.492c1.654 0 3.001-1.346 3.001-3 0-.553-.447-1-1-1s-1 .447-1 1c0 .552-.449 1-1.001 1h-3.492c-1.379 0-2.5 1.121-2.5 2.5s1.121 2.5 2.5 2.5h10.986c.275 0 .5.225.5.5s-.225.5-.5.5c-.004 0-.006.002-.01.002h-3.472c-.004 0-.006-.002-.01-.002-1.329 0-2.447.876-2.84 2.076-2.635.406-4.661 2.683-4.661 5.429 0 1.01.278 1.953.755 2.768-1.935-.603-3.708-1.569-5.252-2.81v-19.463h5.997v.999c0 .553.447 1 1 1h2.001c0 .553.447 1 1 1s1-.447 1-1h2.001c.553 0 1-.447 1-1v-.999h5.996v19.464c-1.545 1.24-3.318 2.207-5.254 2.809.478-.813.756-1.758.756-2.768 0-2.536-1.729-4.672-4.068-5.305zm8.566-16.2h-5.996v-1.003h5.996zm-7.996 1.999h-4.002v-5.001h4.002zm-6.002-1.999h-5.997v-1.003h5.997zm13.998-3.003h-5.996v-.999c0-.553-.447-1-1-1h-6.002c-.553 0-1 .447-1 1v.999h-5.997v-2.998h19.995zm2 22.545v-26.543c0-.553-.447-1-1-1h-21.995c-.553 0-1 .447-1 1v26.542c-.354-.401-.687-.818-.999-1.254v-25.295c0-1.103.897-2 2-2h21.994c1.103 0 2 .897 2 2v25.295c-.312.435-.646.853-1 1.255zm4.003-10.551c0 1.943-.365 3.798-1.003 5.522v-11.083c.655 1.766 1.003 3.64 1.003 5.561z"/></svg>